<svg version="1.1" id="Layer_1" xmlns="http://www.w3.org/2000/svg" xmlns:xlink="http://www.w3.org/1999/xlink" x="0px" y="0px"
	 width="100%" viewBox="0 0 225 225" enable-background="new 0 0 225 225" xml:space="preserve">
<path fill="#010100" opacity="1.000000" stroke="none" 
	d="
M226.000000,121.000000 
	C226.000000,155.964767 226.000000,190.929535 226.000000,225.947144 
	C151.110764,225.947144 76.221466,225.947144 1.000000,225.947144 
	C1.000000,191.313141 1.000000,156.625229 1.159500,121.034531 
	C1.746326,120.303047 2.295218,120.358910 2.583415,120.662361 
	C13.342030,131.990417 23.971674,143.443314 34.860802,154.643997 
	C39.932980,159.861313 47.206619,159.095413 51.254280,153.413422 
	C54.665207,148.625259 54.152077,142.856949 49.574352,138.009415 
	C42.407734,130.420410 35.094994,122.969383 27.616434,115.224075 
	C29.423882,113.274956 30.961349,111.563759 32.555637,109.907257 
	C38.436188,103.797226 44.479954,97.836601 50.182446,91.565292 
	C54.802906,86.483940 54.397449,79.203903 49.699173,75.046570 
	C45.007671,70.895233 39.142979,71.240982 34.173519,76.316795 
	C24.288212,86.413689 14.557066,96.661392 4.728178,106.813812 
	C3.596175,107.983078 2.247964,108.943008 0.999998,110.000000 
	C1.000000,73.702576 1.000000,37.405151 1.000000,1.053863 
	C75.889938,1.053863 150.779922,1.053863 226.000000,1.053863 
	C226.000000,37.020222 226.000000,73.041451 225.760773,109.874474 
	C214.669754,99.252785 203.881485,87.758057 192.938004,76.413033 
	C187.864014,71.152855 181.686493,70.867607 177.033798,75.284981 
	C172.611847,79.483307 172.438828,86.377602 176.703964,91.488197 
	C177.979950,93.017128 179.446960,94.386818 180.829071,95.826958 
	C186.992676,102.249367 193.157227,108.670845 199.402969,115.177597 
	C191.564819,123.332153 184.078110,130.896896 176.860474,138.710205 
	C172.178619,143.778458 172.551346,150.779816 177.296432,155.240891 
	C181.727493,159.406738 187.954575,159.044067 192.796295,154.014313 
	C203.289612,143.113464 213.643906,132.078857 224.108978,121.150581 
	C224.435593,120.809525 225.356262,121.037369 226.000000,121.000000 
M110.855782,91.314629 
	C98.118126,113.746407 85.364601,136.169220 72.672127,158.626526 
	C71.626823,160.476028 70.576920,162.494003 70.254578,164.547562 
	C69.430511,169.797562 72.585175,174.457062 77.642189,176.107849 
	C82.859756,177.811081 87.451271,175.740402 90.789009,169.872787 
	C110.205856,135.738770 129.588074,101.585014 148.944229,67.416542 
	C152.506180,61.128811 151.098846,55.113117 145.500076,51.872482 
	C139.839752,48.596218 134.191528,50.362457 130.462952,56.818531 
	C123.970932,68.059532 117.606880,79.374443 110.855782,91.314629 
z"/>
<path fill="#FBFB00" opacity="1.000000" stroke="none" 
	d="
M0.999998,110.458069 
	C2.247964,108.943008 3.596175,107.983078 4.728178,106.813812 
	C14.557066,96.661392 24.288212,86.413689 34.173519,76.316795 
	C39.142979,71.240982 45.007671,70.895233 49.699173,75.046570 
	C54.397449,79.203903 54.802906,86.483940 50.182446,91.565292 
	C44.479954,97.836601 38.436188,103.797226 32.555637,109.907257 
	C30.961349,111.563759 29.423882,113.274956 27.616434,115.224075 
	C35.094994,122.969383 42.407734,130.420410 49.574352,138.009415 
	C54.152077,142.856949 54.665207,148.625259 51.254280,153.413422 
	C47.206619,159.095413 39.932980,159.861313 34.860802,154.643997 
	C23.971674,143.443314 13.342030,131.990417 2.583415,120.662361 
	C2.295218,120.358910 1.746326,120.303047 1.159500,120.565872 
	C1.000000,117.638710 1.000000,114.277428 0.999998,110.458069 
z"/>
<path fill="#FBFB00" opacity="1.000000" stroke="none" 
	d="
M226.000000,120.541931 
	C225.356262,121.037369 224.435593,120.809525 224.108978,121.150581 
	C213.643906,132.078857 203.289612,143.113464 192.796295,154.014313 
	C187.954575,159.044067 181.727493,159.406738 177.296432,155.240891 
	C172.551346,150.779816 172.178619,143.778458 176.860474,138.710205 
	C184.078110,130.896896 191.564819,123.332153 199.402969,115.177597 
	C193.157227,108.670845 186.992676,102.249367 180.829071,95.826958 
	C179.446960,94.386818 177.979950,93.017128 176.703964,91.488197 
	C172.438828,86.377602 172.611847,79.483307 177.033798,75.284981 
	C181.686493,70.867607 187.864014,71.152855 192.938004,76.413033 
	C203.881485,87.758057 214.669754,99.252785 225.760773,110.343132 
	C226.000000,113.361290 226.000000,116.722572 226.000000,120.541931 
z"/>
<path fill="#FAFA00" opacity="1.000000" stroke="none" 
	d="
M111.022476,90.986496 
	C117.606880,79.374443 123.970932,68.059532 130.462952,56.818531 
	C134.191528,50.362457 139.839752,48.596218 145.500076,51.872482 
	C151.098846,55.113117 152.506180,61.128811 148.944229,67.416542 
	C129.588074,101.585014 110.205856,135.738770 90.789009,169.872787 
	C87.451271,175.740402 82.859756,177.811081 77.642189,176.107849 
	C72.585175,174.457062 69.430511,169.797562 70.254578,164.547562 
	C70.576920,162.494003 71.626823,160.476028 72.672127,158.626526 
	C85.364601,136.169220 98.118126,113.746407 111.022476,90.986496 
z"/>
</svg>